#!OML:ASF E:\inclinewalkrobotboard\Project 1\Capture day 1\Session 1\subject1.ASF
:FULLY-SPECIFIED
:DEGREES
223
root 8.53095 21.2465 15.5495 -167.657 2.82051 -182.462
lowerback 7.36732 1.59616 -2.33227
upperback 4.25835 2.34418 2.22886
thorax 0.0924182 1.25898 3.43981
lowerneck -6.70181 0.378632 -3.22904
upperneck 21.6231 -0.525971 1.26132
head 7.75884 -0.851768 0.852727
rclavicle -9.93923e-015 -2.78299e-014
rhumerus -17.0815 -13.6635 -83.0048
rradius 33.9269
rwrist 4.50607
rhand -17.84 -38.8332
rfingers 7.12502
rthumb 8.4247 -68.6451
lclavicle -9.93923e-015 -2.78299e-014
lhumerus -31.8422 9.17416 82.7149
lradius 19.2146
lwrist -25.903
lhand -26.5214 -19.1604
lfingers 7.12502
lthumb 0.042168 10.8193
rfemur -24.2824 3.99109 21.6725
rtibia 25.8627
rfoot -32.2682 0.810305
rtoes -16.0277
lfemur -46.6601 -2.21352 -22.0331
ltibia 60.1745
lfoot -19.9907 8.4351
ltoes -65.9774
224
root 8.55958 21.2809 15.3777 -168.24 3.21445 -182.403
lowerback 7.70221 1.82178 -2.478
upperback 4.3503 2.64475 2.21943
thorax -0.0250618 1.41421 3.47899
lowerneck -6.66938 0.293244 -3.63635
upperneck 21.7883 -0.699676 1.66251
head 7.81335 -0.941107 1.03803
rclavicle 1.47101e-014 3.4191e-014
rhumerus -15.6607 -11.615 -83.9618
rradius 34.6899
rwrist 3.61187
rhand -18.7722 -39.1532
rfingers 7.12502
rthumb 7.52505 -68.9994
lclavicle 1.47101e-014 3.4191e-014
lhumerus -32.3054 10.0934 81.9774
lradius 18.8331
lwrist -26.2813
lhand -26.4377 -19.1345
lfingers 7.12502
lthumb 0.122969 10.8452
rfemur -22.1793 4.07612 21.8941
rtibia 24.4466
rfoot -32.4841 1.12643
rtoes -15.7536
lfemur -48.72 -2.1339 -21.5537
ltibia 58.7539
lfoot -20.2799 8.7616
ltoes -66.0502
225
root 8.59259 21.3062 15.2055 -168.698 3.79003 -182.327
lowerback 7.93363 2.11656 -2.83469
upperback 4.35398 3.01153 2.24893
thorax -0.194713 1.59581 3.67043
lowerneck -6.42673 0.255125 -3.82695
upperneck 21.8207 -0.797953 1.83382
head 7.78359 -0.998452 1.11779
rclavicle 2.0276e-014 -1.51076e-014
rhumerus -14.6053 -9.53052 -84.7756
rradius 35.6266
rwrist 3.22545
rhand -18.2638 -40.9245
rfingers 7.12502
rthumb 8.01575 -70.7525
lclavicle 2.0276e-014 -1.51076e-014
lhumerus -32.9124 11.1149 81.1816
lradius 18.5021
lwrist -26.8228
lhand -26.1285 -18.9299
lfingers 7.12502
lthumb 0.421608 11.0494
rfemur -20.31 4.41298 22.1213
rtibia 23.1732
rfoot -32.5508 1.31019
rtoes -16.2149
lfemur -50.7923 -1.75978 -21.0335
ltibia 57.3055
lfoot -20.6531 9.16551
ltoes -66.2084
226
root 8.61215 21.324 15.0356 -169.007 3.95176 -182.173
lowerback 8.08394 2.26913 -2.86276
upperback 4.33299 3.21235 2.30907
thorax -0.320812 1.69892 3.72361
lowerneck -6.36108 0.234038 -3.90138
upperneck 21.9163 -0.847183 1.87322
head 7.80521 -1.03208 1.13869
rclavicle 3.97569e-016 -3.02153e-014
rhumerus -13.6228 -7.59556 -85.4001
rradius 36.3983
rwrist 3.02363
rhand -17.8438 -40.4096
rfingers 7.12502
rthumb 8.42109 -70.2217
lclavicle 3.97569e-016 -3.02153e-014
lhumerus -33.3697 11.7296 80.6052
lradius 18.1299
lwrist -27.0614
lhand -25.9502 -18.912
lfingers 7.12502
lthumb 0.59382 11.067
rfemur -18.6602 4.51618 22.4053
rtibia 22.0253
rfoot -32.7143 1.23748
rtoes -17.0805
lfemur -52.9503 -1.72857 -20.4183
ltibia 55.8403
lfoot -20.9497 9.64831
ltoes -66.465
227
root 8.62951 21.3342 14.865 -169.241 4.14009 -181.886
lowerback 8.1408 2.48798 -2.63747
upperback 4.34844 3.52164 2.29343
thorax -0.349833 1.85877 3.54994
lowerneck -6.63817 0.176853 -3.60932
upperneck 22.2265 -0.961844 1.7906
head 7.96116 -1.07682 1.05107
rclavicle -1.86858e-014 -1.19271e-014
rhumerus -12.6557 -5.9282 -86.0659
rradius 37.0771
rwrist 2.27637
rhand -17.8037 -38.9517
rfingers 7.12502
rthumb 8.45975 -68.7622
lclavicle -1.86858e-014 -1.19271e-014
lhumerus -33.5935 11.6716 80.2057
lradius 17.7528
lwrist -26.983
lhand -25.8637 -18.8528
lfingers 7.12502
lthumb 0.677387 11.1259
rfemur -17.1914 4.76848 22.854
rtibia 21.0881
rfoot -33.0562 1.11552
rtoes -17.507
lfemur -55.0102 -1.58095 -19.6576
ltibia 54.2837
lfoot -21.0772 9.85674
ltoes -66.7848
228
root 8.64459 21.3389 14.6849 -169.51 4.33539 -181.493
lowerback 8.15438 2.73586 -2.19147
upperback 4.3581 3.88258 2.19636
thorax -0.343751 2.04665 3.16537
lowerneck -7.19144 0.16612 -2.67949
upperneck 22.913 -1.04271 1.27715
head 8.28999 -1.10316 0.711494
rclavicle 1.19271e-014 -4.6118e-014
rhumerus -11.9514 -4.45524 -86.798
rradius 37.858
rwrist 1.44169
rhand -17.0241 -37.7913
rfingers 7.12502
rthumb 9.2121 -67.5701
lclavicle 1.19271e-014 -4.6118e-014
lhumerus -33.983 11.6101 79.6346
lradius 17.566
lwrist -27.19
lhand -25.7497 -18.8437
lfingers 7.12502
lthumb 0.787463 11.1346
rfemur -15.6648 4.91946 23.4315
rtibia 20.222
rfoot -33.227 1.16523
rtoes -16.8712
lfemur -56.8621 -1.37114 -18.8106
ltibia 52.8785
lfoot -21.6554 8.97484
ltoes -66.332
229
root 8.6587 21.3367 14.5004 -169.823 4.65406 -181.263
lowerback 8.22264 2.95998 -2.03478
upperback 4.3861 4.19288 2.12892
thorax -0.359307 2.20563 2.97649
lowerneck -6.48553 -0.0215837 -3.02137
upperneck 22.4471 -1.39247 1.85045
head 8.01639 -1.24325 0.932552
rclavicle 4.37326e-015 0
rhumerus -11.3065 -2.79141 -87.4405
rradius 38.5987
rwrist 0.696408
rhand -16.348 -37.1447
rfingers 7.12502
rthumb 9.86442 -66.8936
lclavicle 4.37326e-015 0
lhumerus -34.5314 12.044 78.9853
lradius 17.4394
lwrist -27.7982
lhand -25.7446 -19.0466
lfingers 7.12502
lthumb 0.792441 10.9316
rfemur -14.155 4.87596 23.7801
rtibia 19.4677
rfoot -33.3843 1.32008
rtoes -16.8851
lfemur -58.4551 -1.09201 -18.1734
ltibia 51.6061
lfoot -21.1994 8.75923
ltoes -66.209
230
root 8.67024 21.3256 14.315 -170.172 5.05037 -181.154
lowerback 8.37741 3.11351 -2.12559
upperback 4.49275 4.40207 2.13336
thorax -0.354122 2.31338 3.00712
lowerneck -6.50305 -0.0696364 -3.21564
upperneck 22.4725 -1.45253 1.93498
head 8.03139 -1.28104 0.988004
rclavicle -2.98177e-014 -2.62396e-014
rhumerus -10.4592 -1.08182 -88.015
rradius 39.1272
rwrist 0.320335
rhand -15.9618 -36.7999
rfingers 7.12502
rthumb 10.2371 -66.5308
lclavicle -2.98177e-014 -2.62396e-014
lhumerus -34.9354 12.9559 78.3799
lradius 17.1243
lwrist -28.597
lhand -25.8307 -19.1131
lfingers 7.12502
lthumb 0.709247 10.8655
rfemur -12.7249 4.77227 23.9444
rtibia 18.8813
rfoot -33.9274 1.51348
rtoes -18.4592
lfemur -59.8645 -0.732257 -17.7299
ltibia 50.5022
lfoot -20.6874 8.58274
ltoes -65.9253
231
root 8.67703 21.3105 14.1233 -170.612 5.43014 -181.101
lowerback 8.5918 3.17001 -2.25188
upperback 4.66563 4.48739 2.13688
thorax -0.306917 2.36109 3.06704
lowerneck -6.85161 0.0199835 -3.22079
upperneck 22.8016 -1.29082 1.72565
head 8.20035 -1.23056 0.931101
rclavicle 6.36111e-015 -3.18055e-015
rhumerus -9.53068 0.660441 -88.5812
rradius 39.4044
rwrist 0.186031
rhand -15.4295 -36.4241
rfingers 7.12502
rthumb 10.7505 -66.129
lclavicle 6.36111e-015 -3.18055e-015
lhumerus -35.2241 14.2042 77.6732
lradius 16.7104
lwrist -29.5461
lhand -26.0293 -19.4445
lfingers 7.12502
lthumb 0.517419 10.5346
rfemur -11.2323 4.7524 24.0201
rtibia 18.396
rfoot -34.424 1.96265
rtoes -17.904
lfemur -61.0161 -0.399957 -17.3988
ltibia 49.4063
lfoot -19.9864 8.42401
ltoes -65.6121
232
root 8.68021 21.2956 13.9249 -171.071 5.74125 -181.058
lowerback 8.81973 3.25197 -2.28424
upperback 4.80414 4.60798 2.06404
thorax -0.292628 2.42755 2.98959
lowerneck -7.38144 0.1655 -2.83024
upperneck 23.3433 -1.09458 1.39732
head 8.47307 -1.14716 0.769066
rclavicle 7.15625e-015 -1.98785e-014
rhumerus -8.80464 2.09462 -89.1517
rradius 39.5672
rwrist -0.060293
rhand -15.031 -36.0231
rfingers 7.12502
rthumb 11.1349 -65.7077
lclavicle 7.15625e-015 -1.98785e-014
lhumerus -35.4923 15.1554 76.9382
lradius 16.3738
lwrist -30.4929
lhand -26.1671 -19.6012
lfingers 7.12502
lthumb 0.384337 10.3782
rfemur -9.66637 4.85589 24.0874
rtibia 17.8699
rfoot -34.7276 2.34117
rtoes -14.9805
lfemur -61.9528 -0.160811 -17.1271
ltibia 48.908
lfoot -19.2743 8.07138
ltoes -65.3729
